<mxfile host="app.diagrams.net" modified="2024-07-21T22:59:08.370Z" agent="Mozilla/5.0 (Windows NT 10.0; Win64; x64) AppleWebKit/537.36 (KHTML, like Gecko) Chrome/126.0.0.0 Safari/537.36" version="24.6.5" etag="5vwXz4olITSKD-w3T88V" type="github">
  <diagram name="Page-1" id="Ne7PQ0j1aDCgsAqYi8Qv">
    <mxGraphModel>
      <root>
        <mxCell id="0" />
        <mxCell id="1" parent="0" />
      </root>
    </mxGraphModel>
  </diagram>
</mxfile>
